<svg width="71" height="70" viewBox="0 0 71 70" fill="none" xmlns="http://www.w3.org/2000/svg">
<path d="M35.5 70C54.83 70 70.5 54.33 70.5 35C70.5 15.67 54.83 0 35.5 0C16.17 0 0.5 15.67 0.5 35C0.5 54.33 16.17 70 35.5 70Z" fill="#F5F5F5"/>
<rect x="20" y="23.4998" width="32" height="2.56" rx="1.28" fill="#D4D4D4"/>
<rect x="20" y="29.0465" width="32" height="2.56" rx="1.28" fill="#D4D4D4"/>
<rect x="20" y="34.5931" width="32" height="2.56" rx="1.28" fill="#D4D4D4"/>
<rect x="20" y="40.1398" width="32" height="2.56" rx="1.28" fill="#D4D4D4"/>
<path d="M28.0088 39.1774L28.0088 39.1774L31.1078 42.0647C31.6194 42.5414 32.3028 42.7998 33.0038 42.7998C33.7048 42.7998 34.3882 42.5414 34.8998 42.0647L43.9912 33.5942C45.0741 32.5852 45.0687 30.9274 43.9804 29.9248L43.4383 30.5132L43.9804 29.9248C42.9271 28.9544 41.2472 28.9585 40.1992 29.9349L33.0038 36.639L31.8008 35.5181C30.7528 34.5417 29.0729 34.5376 28.0196 35.508C26.9313 36.5106 26.9259 38.1684 28.0088 39.1774Z" fill="#00A69A" stroke="#F5F5F5" stroke-width="1.6"/>
</svg>
